<?xml version="1.0" standalone="no"?><!DOCTYPE svg PUBLIC "-//W3C//DTD SVG 1.1//EN" "http://www.w3.org/Graphics/SVG/1.1/DTD/svg11.dtd"><svg t="1503470601645" class="icon" style="" viewBox="0 0 1024 1024" version="1.1" xmlns="http://www.w3.org/2000/svg" p-id="4146" xmlns:xlink="http://www.w3.org/1999/xlink" width="200" height="200"><defs><style type="text/css"></style></defs><path d="M973.998639 141.254721c-17.500614-0.333345-156.81503 138.862018-318.3207 306.677434 159.434169 187.054186 297.510446 398.490181 317.344476 549.066897 0 0-220.722035-207.626337-446.277574-414.109777C317.380348 803.492258 113.68272 1024 113.68272 1024c9.000316-150.791009 130.480772-369.727267 275.200138-566.49608C216.853009 302.188943 69.276399 174.136828 51.918646 175.660691c0 0-34.691694-108.384758 88.907884-146.790868C194.971288 12.059709 352.714922 129.754318 516.673059 296.236353 669.178413 117.491982 819.350353-12.179237 874.828491 0.940271c126.052045 29.78676 99.170149 140.31445 99.170148 140.31445z" fill="#d4237a" p-id="4147"></path></svg>