<?xml version="1.0" encoding="UTF-8"?>
<svg width="22px" height="22px" viewBox="0 0 22 22" version="1.1" xmlns="http://www.w3.org/2000/svg" xmlns:xlink="http://www.w3.org/1999/xlink">
    <!-- Generator: Sketch 43.1 (39012) - http://www.bohemiancoding.com/sketch -->
    <title>icon_close</title>
    <desc>Created with Sketch.</desc>
    <defs></defs>
    <g id="Symbols" stroke="none" stroke-width="1" fill="none" fill-rule="evenodd">
        <g id="返回" transform="translate(-2.000000, -1.000000)" fill="#FFFFFF">
            <g id="icon_close" transform="translate(0.000000, -1.000000)">
                <g transform="translate(12.853553, 13.353553) rotate(45.000000) translate(-12.853553, -13.353553) translate(3.853553, 4.353553)" id="Combined-Shape">
                    <path d="M9.84375,8.15625 L9.84375,0.844034582 C9.84375,0.375955582 9.46599026,6.37712105e-13 9,6.37712105e-13 C8.53076094,6.37712105e-13 8.15625,0.377887154 8.15625,0.844034582 L8.15625,8.15625 L0.844034582,8.15625 C0.375955582,8.15625 -1.77635684e-15,8.53400974 -1.77635684e-15,9 C-1.77635684e-15,9.46923906 0.377887154,9.84375 0.844034582,9.84375 L8.15625,9.84375 L8.15625,17.1559654 C8.15625,17.6240444 8.53400974,18 9,18 C9.46923906,18 9.84375,17.6221128 9.84375,17.1559654 L9.84375,9.84375 L17.1559654,9.84375 C17.6240444,9.84375 18,9.46599026 18,9 C18,8.53076094 17.6221128,8.15625 17.1559654,8.15625 L9.84375,8.15625 Z"></path>
                </g>
            </g>
        </g>
    </g>
</svg>